<svg xmlns="http://www.w3.org/2000/svg" xmlns:xlink="http://www.w3.org/1999/xlink" width="378" zoomAndPan="magnify" viewBox="0 0 283.5 92.999996" height="124" preserveAspectRatio="xMidYMid meet" version="1.0"><defs><clipPath id="60f4031fc9"><path d="M 0 0.0820312 L 283 0.0820312 L 283 92.917969 L 0 92.917969 Z M 0 0.0820312 " clip-rule="nonzero"/></clipPath><clipPath id="92c4f5925e"><path d="M 0.722656 0.753906 L 282.722656 0.753906 L 282.722656 92.253906 L 0.722656 92.253906 Z M 0.722656 0.753906 " clip-rule="nonzero"/></clipPath><clipPath id="d48f725160"><path d="M 7.507812 31 L 38 31 L 38 84 L 7.507812 84 Z M 7.507812 31 " clip-rule="nonzero"/></clipPath><clipPath id="47aeaf1019"><path d="M 42 11.019531 L 73 11.019531 L 73 46 L 42 46 Z M 42 11.019531 " clip-rule="nonzero"/></clipPath><clipPath id="71196d5bf4"><path d="M 42 48 L 48 48 L 48 86.03125 L 42 86.03125 Z M 42 48 " clip-rule="nonzero"/></clipPath><clipPath id="cd73d8c98e"><path d="M 72 31 L 77.523438 31 L 77.523438 69 L 72 69 Z M 72 31 " clip-rule="nonzero"/></clipPath><clipPath id="025c6e5134"><path d="M 98.804688 85.050781 L 114.777344 85.050781 L 114.777344 90.546875 L 98.804688 90.546875 Z M 98.804688 85.050781 " clip-rule="nonzero"/></clipPath><clipPath id="b0518e2eed"><path d="M 101.089844 85.058594 C 114.140625 85.808594 114.664062 86.707031 114.664062 87.382812 C 114.664062 87.984375 114.066406 88.734375 113.613281 89.03125 C 113.238281 89.257812 112.714844 89.40625 112.339844 89.332031 C 111.890625 89.257812 111.441406 89.109375 111.140625 88.734375 C 110.765625 88.359375 110.464844 87.457031 110.539062 86.933594 C 110.539062 86.484375 110.765625 86.03125 111.140625 85.734375 C 111.589844 85.359375 112.488281 85.058594 113.015625 85.207031 C 113.613281 85.359375 114.289062 85.957031 114.515625 86.484375 C 114.738281 86.859375 114.738281 87.382812 114.589844 87.832031 C 114.363281 88.359375 114.066406 88.882812 113.238281 89.257812 C 111.214844 90.15625 102.738281 90.53125 100.566406 89.40625 C 99.515625 88.882812 98.839844 87.757812 98.914062 87.007812 C 98.988281 86.257812 101.089844 85.058594 101.089844 85.058594 " clip-rule="nonzero"/></clipPath></defs><g clip-path="url(#60f4031fc9)"><path fill="#ffffff" d="M 0 0.0820312 L 283.5 0.0820312 L 283.5 100.582031 L 0 100.582031 Z M 0 0.0820312 " fill-opacity="1" fill-rule="nonzero"/><path fill="#ffffff" d="M 0 0.0820312 L 283.5 0.0820312 L 283.5 93.082031 L 0 93.082031 Z M 0 0.0820312 " fill-opacity="1" fill-rule="nonzero"/></g><g clip-path="url(#92c4f5925e)"><rect x="-28.35" width="340.2" fill="#000000" y="-9.3" height="111.599995" fill-opacity="1"/></g><g clip-path="url(#d48f725160)"><path fill="#6000e8" d="M 7.578125 31.164062 C 8 31.378906 8.289062 31.5 8.5625 31.65625 C 18.023438 37.125 27.488281 42.585938 36.964844 48.046875 C 37.183594 48.148438 37.347656 48.304688 37.46875 48.511719 C 37.585938 48.722656 37.632812 48.945312 37.609375 49.183594 L 37.609375 82.179688 C 37.609375 82.4375 37.609375 82.695312 37.546875 83.074219 C 37.214844 82.921875 36.972656 82.839844 36.792969 82.710938 C 27.238281 77.210938 17.703125 71.710938 8.183594 66.207031 C 7.953125 66.097656 7.777344 65.929688 7.65625 65.707031 C 7.535156 65.484375 7.488281 65.25 7.515625 64.996094 L 7.515625 32.171875 C 7.515625 31.894531 7.554688 31.605469 7.578125 31.164062 Z M 7.578125 31.164062 " fill-opacity="1" fill-rule="nonzero"/></g><g clip-path="url(#47aeaf1019)"><path fill="#fecc01" d="M 42.496094 11.019531 L 72.621094 28.445312 L 42.496094 45.871094 Z M 42.496094 11.019531 " fill-opacity="1" fill-rule="nonzero"/></g><path fill="#6000e8" d="M 52.414062 80.308594 C 52.414062 79.765625 52.367188 79.445312 52.367188 79.136719 L 52.367188 46.554688 C 52.320312 46.238281 52.375 45.9375 52.527344 45.65625 C 52.683594 45.375 52.90625 45.167969 53.203125 45.039062 C 54.390625 44.425781 55.527344 43.71875 56.6875 43.0625 C 56.9375 42.925781 57.195312 42.8125 57.582031 42.613281 C 57.582031 43.121094 57.648438 43.460938 57.648438 43.804688 L 57.648438 60.753906 C 57.648438 65.949219 57.589844 71.15625 57.589844 76.355469 C 57.632812 76.675781 57.574219 76.976562 57.414062 77.253906 C 57.257812 77.535156 57.027344 77.742188 56.730469 77.871094 C 55.332031 78.621094 53.980469 79.421875 52.414062 80.308594 Z M 52.414062 80.308594 " fill-opacity="1" fill-rule="nonzero"/><g clip-path="url(#71196d5bf4)"><path fill="#fb017a" d="M 42.367188 86.03125 L 42.367188 52.386719 C 42.339844 52.066406 42.40625 51.765625 42.570312 51.488281 C 42.730469 51.210938 42.960938 51.003906 43.253906 50.871094 C 44.632812 50.113281 45.972656 49.320312 47.496094 48.441406 C 47.542969 48.910156 47.59375 49.199219 47.59375 49.507812 L 47.59375 82.242188 C 47.625 82.539062 47.566406 82.820312 47.414062 83.078125 C 47.261719 83.335938 47.046875 83.523438 46.769531 83.644531 C 45.609375 84.242188 44.496094 84.929688 43.367188 85.582031 C 43.125 85.6875 42.867188 85.808594 42.367188 86.03125 Z M 42.367188 86.03125 " fill-opacity="1" fill-rule="nonzero"/></g><g clip-path="url(#cd73d8c98e)"><path fill="#e8391c" d="M 72.398438 68.800781 C 72.398438 68.222656 72.332031 67.882812 72.332031 67.535156 L 72.332031 35.164062 C 72.289062 34.808594 72.359375 34.476562 72.542969 34.167969 C 72.722656 33.859375 72.980469 33.636719 73.308594 33.5 C 74.664062 32.785156 75.96875 31.984375 77.460938 31.105469 C 77.460938 31.613281 77.515625 31.921875 77.515625 32.226562 L 77.515625 64.867188 C 77.546875 65.175781 77.488281 65.464844 77.335938 65.734375 C 77.179688 66.003906 76.964844 66.203125 76.679688 66.328125 C 75.292969 67.085938 73.953125 67.898438 72.398438 68.800781 Z M 72.398438 68.800781 " fill-opacity="1" fill-rule="nonzero"/></g><path fill="#2be7fe" d="M 62.4375 74.550781 C 62.4375 73.945312 62.375 73.574219 62.375 73.195312 L 62.375 40.910156 C 62.335938 40.550781 62.40625 40.21875 62.589844 39.90625 C 62.769531 39.597656 63.023438 39.371094 63.355469 39.226562 C 64.71875 38.53125 66.027344 37.710938 67.519531 36.886719 C 67.519531 37.324219 67.589844 37.644531 67.589844 37.878906 C 67.589844 48.851562 67.578125 59.820312 67.550781 70.792969 C 67.582031 71.046875 67.539062 71.285156 67.414062 71.507812 C 67.292969 71.730469 67.117188 71.898438 66.882812 72.003906 C 65.4375 72.785156 64.035156 73.625 62.4375 74.550781 Z M 37.535156 42.917969 C 35.851562 41.945312 34.304688 41.089844 32.804688 40.152344 C 32.570312 40 32.472656 39.484375 32.472656 39.136719 L 32.472656 17.480469 C 32.480469 17.128906 32.613281 16.835938 32.875 16.601562 C 34.269531 15.746094 35.699219 14.957031 37.125 14.15625 C 37.257812 14.109375 37.394531 14.074219 37.535156 14.050781 Z M 37.535156 42.917969 " fill-opacity="1" fill-rule="nonzero"/><path fill="#e8391c" d="M 27.523438 19.679688 L 27.523438 37.160156 C 25.84375 36.171875 24.28125 35.285156 22.746094 34.339844 C 22.546875 34.125 22.457031 33.871094 22.472656 33.582031 L 22.472656 23.246094 C 22.460938 22.953125 22.558594 22.699219 22.765625 22.488281 C 24.304688 21.527344 25.867188 20.640625 27.523438 19.679688 Z M 27.523438 19.679688 " fill-opacity="1" fill-rule="nonzero"/><path fill="#6000e8" d="M 17.628906 31.476562 L 12.425781 28.445312 L 17.628906 25.414062 Z M 17.628906 31.476562 " fill-opacity="1" fill-rule="nonzero"/><path fill="#ffffff" d="M 91.78125 27.414062 L 91.78125 71.457031 L 85.691406 71.457031 L 85.691406 27.414062 Z M 104.734375 45.269531 C 104.734375 46.621094 105.296875 47.648438 106.414062 48.347656 C 107.535156 49.050781 108.925781 49.621094 110.582031 50.0625 C 112.238281 50.507812 114.035156 50.917969 115.972656 51.289062 C 117.910156 51.664062 119.707031 52.222656 121.363281 52.96875 C 123.019531 53.71875 124.410156 54.742188 125.53125 56.050781 C 126.648438 57.359375 127.210938 59.132812 127.210938 61.371094 C 127.210938 63.238281 126.8125 64.863281 126.019531 66.238281 C 125.226562 67.617188 124.1875 68.757812 122.90625 69.671875 C 121.621094 70.582031 120.140625 71.257812 118.457031 71.699219 C 116.777344 72.144531 115.074219 72.367188 113.347656 72.367188 C 111.480469 72.367188 109.636719 72.109375 107.816406 71.59375 C 105.996094 71.082031 104.363281 70.335938 102.914062 69.355469 C 101.46875 68.375 100.300781 67.148438 99.414062 65.679688 C 98.527344 64.207031 98.085938 62.492188 98.085938 60.53125 C 98.085938 60.34375 98.097656 60.136719 98.121094 59.902344 C 98.140625 59.667969 98.152344 59.367188 98.152344 58.992188 L 104.035156 58.992188 C 103.988281 59.179688 103.964844 59.367188 103.964844 59.550781 C 103.964844 59.738281 103.964844 59.925781 103.964844 60.113281 C 103.964844 61.1875 104.246094 62.132812 104.804688 62.949219 C 105.367188 63.765625 106.089844 64.441406 106.976562 64.980469 C 107.863281 65.515625 108.867188 65.925781 109.988281 66.203125 C 111.105469 66.484375 112.25 66.625 113.417969 66.625 C 114.445312 66.625 115.425781 66.507812 116.359375 66.273438 C 117.292969 66.039062 118.121094 65.714844 118.84375 65.292969 C 119.566406 64.875 120.152344 64.359375 120.59375 63.753906 C 121.039062 63.144531 121.257812 62.445312 121.257812 61.652344 C 121.257812 60.390625 120.710938 59.445312 119.613281 58.816406 C 118.515625 58.1875 117.152344 57.671875 115.519531 57.277344 C 113.882812 56.878906 112.109375 56.496094 110.195312 56.121094 C 108.28125 55.746094 106.507812 55.175781 104.875 54.40625 C 103.242188 53.636719 101.875 52.585938 100.78125 51.253906 C 99.683594 49.925781 99.132812 48.09375 99.132812 45.757812 C 99.132812 43.984375 99.484375 42.433594 100.183594 41.101562 C 100.886719 39.773438 101.816406 38.675781 102.984375 37.8125 C 104.152344 36.949219 105.492188 36.292969 107.011719 35.851562 C 108.527344 35.40625 110.101562 35.183594 111.738281 35.183594 C 113.511719 35.183594 115.25 35.441406 116.953125 35.957031 C 118.65625 36.46875 120.183594 37.226562 121.539062 38.230469 C 122.894531 39.234375 123.976562 40.507812 124.792969 42.046875 C 125.613281 43.585938 126.019531 45.363281 126.019531 47.367188 L 126.019531 48.558594 L 120.347656 48.558594 C 120.394531 48.324219 120.429688 48.09375 120.453125 47.859375 C 120.476562 47.625 120.488281 47.390625 120.488281 47.160156 C 120.488281 46.132812 120.253906 45.210938 119.789062 44.394531 C 119.320312 43.574219 118.691406 42.898438 117.898438 42.363281 C 117.105469 41.824219 116.207031 41.417969 115.203125 41.136719 C 114.199219 40.855469 113.160156 40.714844 112.085938 40.714844 C 110.078125 40.714844 108.386719 41.136719 107.011719 41.976562 C 105.632812 42.816406 104.875 43.914062 104.734375 45.269531 Z M 139.882812 36.445312 L 139.882812 39.804688 C 140.394531 38.828125 141.0625 38.03125 141.878906 37.425781 C 142.695312 36.820312 143.535156 36.351562 144.398438 36.027344 C 145.261719 35.699219 146.101562 35.476562 146.917969 35.359375 C 147.734375 35.242188 148.402344 35.183594 148.914062 35.183594 C 152.277344 35.183594 154.984375 35.605469 157.035156 36.445312 C 159.089844 37.285156 160.585938 38.359375 161.515625 39.667969 C 162.171875 38.78125 162.953125 38.042969 163.863281 37.460938 C 164.773438 36.878906 165.695312 36.410156 166.628906 36.058594 C 167.5625 35.710938 168.425781 35.476562 169.21875 35.359375 C 170.011719 35.242188 170.597656 35.183594 170.96875 35.183594 C 173.398438 35.183594 175.484375 35.5 177.234375 36.128906 C 178.984375 36.761719 180.421875 37.789062 181.542969 39.210938 C 182.660156 40.636719 183.492188 42.480469 184.027344 44.742188 C 184.5625 47.007812 184.832031 49.75 184.832031 52.96875 L 184.832031 71.386719 L 178.53125 71.386719 L 178.53125 52.761719 C 178.53125 51.3125 178.460938 49.925781 178.320312 48.59375 C 178.179688 47.261719 177.867188 46.085938 177.375 45.058594 C 176.886719 44.03125 176.164062 43.203125 175.207031 42.574219 C 174.25 41.941406 172.929688 41.582031 171.25 41.488281 C 170.316406 41.488281 169.347656 41.628906 168.34375 41.90625 C 167.339844 42.1875 166.429688 42.664062 165.613281 43.34375 C 164.796875 44.019531 164.121094 44.941406 163.582031 46.109375 C 163.046875 47.273438 162.777344 48.722656 162.777344 50.449219 L 162.777344 71.386719 L 156.476562 71.386719 L 156.476562 50.449219 C 156.476562 49.609375 156.40625 48.6875 156.265625 47.683594 C 156.125 46.679688 155.8125 45.734375 155.320312 44.847656 C 154.832031 43.960938 154.109375 43.203125 153.152344 42.574219 C 152.195312 41.941406 150.875 41.582031 149.195312 41.488281 C 148.074219 41.488281 146.953125 41.640625 145.835938 41.941406 C 144.714844 42.246094 143.710938 42.78125 142.824219 43.550781 C 141.9375 44.324219 141.226562 45.394531 140.6875 46.773438 C 140.152344 48.152344 139.882812 49.914062 139.882812 52.058594 L 139.882812 71.527344 L 133.511719 71.527344 L 133.511719 36.445312 Z M 226.769531 56.402344 L 222.429688 57.101562 C 222.429688 58.875 222.429688 60.613281 222.429688 62.316406 C 222.429688 64.023438 222.417969 65.539062 222.394531 66.871094 C 222.371094 68.199219 222.359375 69.273438 222.359375 70.089844 C 222.359375 70.90625 222.359375 71.339844 222.359375 71.386719 L 215.917969 71.386719 L 215.917969 67.675781 C 214.566406 69.355469 212.929688 70.546875 211.019531 71.246094 C 209.105469 71.945312 207.144531 72.296875 205.136719 72.296875 C 203.503906 72.296875 201.871094 72.050781 200.234375 71.558594 C 198.601562 71.070312 197.132812 70.335938 195.824219 69.355469 C 194.519531 68.375 193.46875 67.148438 192.675781 65.679688 C 191.878906 64.207031 191.484375 62.492188 191.484375 60.53125 C 191.484375 58.523438 191.820312 56.796875 192.5 55.351562 C 193.175781 53.902344 194.109375 52.726562 195.300781 51.816406 C 196.488281 50.90625 197.890625 50.238281 199.5 49.820312 C 201.109375 49.398438 202.871094 49.1875 204.785156 49.1875 C 206.46875 49.1875 208.253906 49.328125 210.144531 49.609375 C 212.03125 49.890625 213.957031 50.332031 215.917969 50.941406 L 215.917969 50.660156 C 216.011719 50.285156 216.058594 49.960938 216.058594 49.679688 C 216.058594 49.398438 216.058594 49.097656 216.058594 48.769531 C 216.058594 47.507812 215.8125 46.410156 215.324219 45.476562 C 214.832031 44.542969 214.191406 43.773438 213.398438 43.167969 C 212.605469 42.5625 211.707031 42.105469 210.703125 41.800781 C 209.699219 41.5 208.660156 41.347656 207.585938 41.347656 C 206.558594 41.347656 205.558594 41.464844 204.578125 41.695312 C 203.597656 41.929688 202.710938 42.304688 201.914062 42.816406 C 201.121094 43.332031 200.46875 43.972656 199.957031 44.742188 C 199.441406 45.511719 199.160156 46.433594 199.117188 47.507812 L 192.675781 47.507812 C 192.8125 45.453125 193.316406 43.65625 194.179688 42.117188 C 195.042969 40.578125 196.140625 39.304688 197.46875 38.300781 C 198.800781 37.296875 200.304688 36.539062 201.984375 36.027344 C 203.667969 35.511719 205.394531 35.253906 207.167969 35.253906 C 209.222656 35.253906 211.15625 35.535156 212.976562 36.09375 C 214.796875 36.65625 216.398438 37.542969 217.773438 38.757812 C 219.152344 39.96875 220.25 41.523438 221.066406 43.414062 C 221.882812 45.304688 222.3125 47.601562 222.359375 50.308594 L 222.359375 50.660156 C 223.058594 50.566406 223.773438 50.449219 224.496094 50.308594 C 225.21875 50.167969 225.976562 50.007812 226.769531 49.820312 Z M 215.988281 59.691406 L 215.988281 57.242188 C 215.707031 57.242188 215.207031 57.148438 214.484375 56.960938 C 213.761719 56.773438 212.921875 56.578125 211.964844 56.367188 C 211.007812 56.15625 209.980469 55.957031 208.882812 55.769531 C 207.785156 55.585938 206.722656 55.492188 205.695312 55.492188 C 204.902344 55.492188 204.050781 55.574219 203.140625 55.734375 C 202.230469 55.898438 201.390625 56.191406 200.621094 56.609375 C 199.851562 57.03125 199.207031 57.566406 198.695312 58.222656 C 198.183594 58.875 197.925781 59.691406 197.925781 60.671875 C 197.925781 61.464844 198.148438 62.191406 198.589844 62.84375 C 199.035156 63.496094 199.628906 64.070312 200.375 64.558594 C 201.121094 65.046875 201.984375 65.433594 202.964844 65.714844 C 203.945312 65.992188 204.996094 66.132812 206.117188 66.132812 C 207.421875 66.132812 208.660156 65.914062 209.828125 65.46875 C 210.996094 65.023438 212.03125 64.476562 212.941406 63.824219 C 213.851562 63.167969 214.578125 62.46875 215.113281 61.722656 C 215.652344 60.976562 215.941406 60.300781 215.988281 59.691406 Z M 239.582031 36.515625 L 239.582031 71.457031 L 233.492188 71.457031 L 233.492188 36.515625 Z M 236.503906 31.265625 C 235.570312 31.265625 234.765625 30.949219 234.085938 30.320312 C 233.410156 29.6875 233.074219 28.90625 233.074219 27.972656 C 233.074219 27.039062 233.410156 26.257812 234.085938 25.628906 C 234.765625 24.996094 235.570312 24.683594 236.503906 24.683594 C 237.484375 24.683594 238.3125 24.996094 238.988281 25.628906 C 239.664062 26.257812 240.003906 27.039062 240.003906 27.972656 C 240.003906 28.90625 239.664062 29.6875 238.988281 30.320312 C 238.3125 30.949219 237.484375 31.265625 236.503906 31.265625 Z M 254.496094 27.414062 L 254.496094 71.457031 L 248.40625 71.457031 L 248.40625 27.414062 Z M 254.496094 27.414062 " fill-opacity="1" fill-rule="nonzero"/><g clip-path="url(#025c6e5134)"><g clip-path="url(#b0518e2eed)"><path fill="#000000" d="M 95.914062 82.058594 L 117.664062 82.058594 L 117.664062 92.40625 L 95.914062 92.40625 Z M 95.914062 82.058594 " fill-opacity="1" fill-rule="nonzero"/></g></g></svg>